<svg id="Layer_1" data-name="Layer 1" xmlns="http://www.w3.org/2000/svg" viewBox="0 0 65.81 54.7"><defs><style>.cls-1,.cls-2{fill:none;}.cls-2{stroke:#082b26;stroke-linecap:round;stroke-linejoin:round;stroke-width:2.75px;}</style></defs><path class="cls-1" d="M10.91,5.35h44v44h-44Z"/><path class="cls-2" d="M34.74,10.85a1.83,1.83,0,0,1,1.83,1.83V21l7.2-4.16a1.85,1.85,0,0,1,2.51.67l1.83,3.18a1.82,1.82,0,0,1-.67,2.5l-7.2,4.16,7.2,4.16a1.82,1.82,0,0,1,.67,2.5l-1.83,3.18a1.83,1.83,0,0,1-2.51.67l-7.2-4.16V42a1.83,1.83,0,0,1-1.83,1.83H31.07A1.83,1.83,0,0,1,29.24,42V33.7L22,37.86a1.84,1.84,0,0,1-2.51-.67L17.7,34a1.82,1.82,0,0,1,.67-2.5l7.2-4.16-7.2-4.16a1.82,1.82,0,0,1-.67-2.5l1.83-3.18A1.85,1.85,0,0,1,22,16.84L29.24,21V12.68a1.83,1.83,0,0,1,1.83-1.83Z"/></svg>