<?xml version="1.0" standalone="no"?>
<!DOCTYPE svg PUBLIC "-//W3C//DTD SVG 20010904//EN"
 "http://www.w3.org/TR/2001/REC-SVG-20010904/DTD/svg10.dtd">
<svg version="1.0" xmlns="http://www.w3.org/2000/svg"
 width="64.000000pt" height="61.000000pt" viewBox="0 0 64.000000 61.000000"
 preserveAspectRatio="xMidYMid meet">

<g transform="translate(0.000000,61.000000) scale(0.100000,-0.100000)"
fill="#e0b973" stroke="none">
<path d="M349 578 c-8 -15 -10 -60 -6 -145 l6 -123 -26 0 c-14 0 -86 13 -160
30 -152 34 -159 35 -141 17 28 -28 56 -35 183 -47 71 -6 131 -13 133 -15 4 -4
-43 -74 -96 -144 -40 -53 -66 -101 -58 -109 10 -10 46 31 70 79 13 25 42 74
64 109 l39 62 21 -33 c11 -19 36 -69 56 -112 19 -43 44 -90 56 -104 l20 -26 0
25 c0 20 -41 96 -136 249 -2 3 40 16 94 29 147 34 171 42 148 50 -12 4 -63 -7
-124 -27 -58 -18 -111 -33 -119 -33 -12 0 -13 24 -7 145 4 80 4 145 1 145 -4
0 -12 -10 -18 -22z"/>
<path d="M254 545 c-5 -27 -2 -41 11 -55 25 -27 42 -25 48 7 6 35 1 48 -28 67
-24 16 -24 15 -31 -19z"/>
<path d="M458 528 c-48 -23 -76 -89 -59 -140 10 -31 15 -34 41 -30 58 8 80 62
62 152 l-7 35 -37 -17z"/>
<path d="M127 461 c11 -72 57 -110 139 -115 48 -4 57 8 41 57 -11 34 -76 74
-140 86 l-45 8 5 -36z"/>
<path d="M548 439 c-24 -13 -23 -39 1 -39 20 0 51 25 51 41 0 12 -30 11 -52
-2z"/>
<path d="M463 298 c-27 -13 -31 -49 -8 -68 21 -17 82 -16 128 3 37 16 38 17
22 41 -24 36 -93 48 -142 24z"/>
<path d="M70 285 c-10 -12 -7 -15 13 -20 32 -8 77 13 56 26 -21 13 -55 11 -69
-6z"/>
<path d="M175 266 c-24 -11 -85 -82 -85 -100 0 -13 63 -24 94 -15 35 10 86 59
86 84 0 31 -53 49 -95 31z"/>
<path d="M341 184 c-17 -21 -21 -38 -18 -60 5 -31 46 -104 58 -104 4 0 14 16
23 35 19 40 10 91 -22 134 l-19 23 -22 -28z"/>
<path d="M490 166 c0 -26 36 -59 67 -61 30 -2 31 0 22 24 -6 14 -15 31 -21 38
-14 18 -68 17 -68 -1z"/>
<path d="M274 85 c-9 -13 -13 -32 -10 -41 6 -15 8 -15 26 1 21 19 26 50 10 60
-5 3 -17 -6 -26 -20z"/>
</g>
</svg>
