<?xml version="1.0" encoding="utf-8"?>
<!-- Generator: Adobe Illustrator 25.2.1, SVG Export Plug-In . SVG Version: 6.00 Build 0)  -->
<svg version="1.1" id="Layer_1" xmlns="http://www.w3.org/2000/svg" xmlns:xlink="http://www.w3.org/1999/xlink" x="0px" y="0px"
	 viewBox="0 0 1595 474" style="enable-background:new 0 0 1595 474;" xml:space="preserve">
<style type="text/css">
	.st0{fill:#e0b973;}
</style>
<g>
	<g>
		<path class="st0" d="M286.5-0.2c2.6,13.3,7.2,37.4,7.2,39.3v42.6l-7.6,70.1v14.4c0,1.9-2.3,14.3-2.3,16.2v52.3
			c0,0-0.7,0.6,1.2,0.6c25.3,0,165.8-54.8,182-54.8c1.5,0,16.8,8.3,32.3,7.9c-26.3,20.8-63.4,23.4-92.5,28.9
			c-38.4,7.4-76.9,19.6-115.5,27.8c7.6,13.4,17.8,28.4,27.1,43.3c5.7,9,85.6,130.1,85.1,153.8v24c-35.1-30.4-52-74.9-68.6-111.7
			c-15.9-35.5-35.2-69.6-54.2-105.4c0,0-0.8,0-1.2-0.7c-29.2,49-72.1,110.5-94.4,164.3c-7.1,17.3-32.7,30.4-46,38.3
			c6.1-48.4,54.4-96.7,86.4-142.2c13.7-19.4,27.7-40.4,40.6-60c-2.4-4.6-12.5-4.1-17.2-4.5c-12.2-0.9-25.2-2.8-37.4-5.1l-115.7-9.9
			c-17.2-2.3-40.5-1.3-55-10.2c-14.6-9-24.2-26.2-39.7-36.7c90.3,14.6,180.1,45.4,269.8,53.9c1.4-1.4,1.3-1.9,1.3-3.8l-4.5-62.1
			V92.2c-0.1-1.9-3.9-40.3-3.9-42.2C264,22.5,271.5,32.6,286.5-0.2"/>
		<path class="st0" d="M497.8,281.2c-4.8-1.9-10.9-2.3-13.8-5.2c-7.1-7-12-21.6-18.6-29.2c-5.2-6.1-35-14.8-45.7-14.8
			c-1.9,0-12.2-0.8-14.1-0.8c-11.9,0-27.1,3.5-37.6,7.8c-10.3,4.2-24.5,18.6-35.5,17.6c14.2,3.9,7.2,15,10.9,24.6
			c6.6,17.3,27.9,27,42.8,27.7c9.2,0.4,12.2,0.8,14.1,0.8C437.9,309.7,455,289.2,497.8,281.2 M460.1,152.5c9.4-8,8-21.4,15.6-30.7
			H473c-20.2,4.1-44.3,0.9-57.2,22.9c-3.2,5.4,0.7,12.1-6.3,18.5c0.9,1,0.9,1.9,0.9,1.9h3.4c0.9-0.8-0.2-1.5,1.7-1.5h18.6
			C438.3,163.5,457.6,154.6,460.1,152.5 M400.3,131.8v-21.3l-10.7-56.4c-0.8-4.6,0-9.1-0.3-14c-3.7,4.8-9.2,14.5-11.7,15.7
			c-3.7,1.9-7.3,3.5-11.3,3.5c-35.9,0.7-60.5,60.4-60.5,89.7c0,24.9,14.5,46.5,14.5,49.1c0,1.9-1.5,3-1.4,6.4c1,0.1,1.9,0.9,1.9,0.9
			c1.7-1.6,4.1-4.7,5.5-6.9h16.5C376.4,198.5,400.3,159.9,400.3,131.8 M282.1,306.7v4.3c0.5,2-1.2,4.9-2.6,5.4
			c-16.5,6-29.2,31.3-29.2,46c0,1.9,1.2,2.6,0.8,11.8c-2.1,37.1,35.6,63.9,48.9,98.6c1,0.1,2.1-0.3,2-1.4c-1-0.1-0.7-2-0.7-8.1
			c0.8-5.4,5.6-12.3,9.5-16c10.9-10.4,16.4-29.3,16.4-43c0-6.8-3.8-30.8-3.8-32.4C323.4,350.3,295,325.1,282.1,306.7 M245,202.3
			c0-1.7,3.8-12,3.8-20.6c0-51.2-84.3-89.1-120.1-89.1h-10.5c-9.8,0-19.8-8.1-29.3-12.1c3.5,5.8,9.1,16.5,9.8,23.1
			c0.9,9.1,0.8,10.6,0.8,12.5c0,57.4,60.2,92.1,107.4,92.1l30-2.3c2.9,1.5,7.7,5.3,9.6,5.3c1.9,0,1.4-0.1,2.3-1.1
			C247.2,207.8,245,204.2,245,202.3 M248.8,66.4c-0.7-22.1-27.8-30.7-40.6-46h-3.5c1.3,10.1-8.5,29-8.5,39.8v13.9
			c0,13.9,23.4,32.9,33.8,35.5c3.9,1,5.8,7.5,7.7,7.5s1.9-0.9,1.9-0.9c-0.3-12.6,7.1-26.3,9.2-39C248.8,76.3,248,75.6,248.8,66.4
			 M120.7,247.4c-10.9,0.1-21.5-7.7-32.4-7.7H77.9c-14.2,0-21.5,15.6-32.5,23.3c1.1,0.3,1.5,0.7,1.5,0.7c-0.6,0.4-1.5,0.8-1.5,0.8
			c11.1,2,27.1,8.7,39.6,8.7c4,0,21.4-6.5,24-9.3c3.7-3.9,4.9-13.7,12.4-12.9C121.6,249.9,120.8,248.4,120.7,247.4 M60,354.5
			c4.2-0.6,6.9-2.9,8.8-2.9h9.7c6.6,0,22,13,39.7,13c36.4,0,91.8-32.6,95.8-75c0.3-3.5,5.1-6.6,7.4-10.1c-4.1-0.2-5.7,0.6-7.6,0.6
			c-0.4,0-26.5-21.3-51-21.3C108.7,258.7,90.7,322.6,60,354.5 M233.8,385.2c-17.7,18.8-29.9,29.9-29.9,49.8c0,6.1,7.6,19.1,7.8,25.5
			c21.6-19.6,33.3-31.4,33.3-52.2c0-6.5-8.4-14.5-8.5-23.1L233.8,385.2L233.8,385.2z M379.3,330.3l-1.8,1.9c1.6,3.3,4.8,5.2,5,8.4
			c2,26.3,19.5,55.2,46.4,55.1h6.3c0.1-1.1,0.5-1.5,0.5-1.5c0.4,0.7,0.7,1.5,2.6,1.5s0.8-1.5,2.8-1.5h11.2c1.9,0,3.6,3.8,5.5,3.7h4
			C449.5,364.7,444.1,331,407,331c-1.9,0-8,0.8-20.2,0.8C384.6,331.8,382.5,331.1,379.3,330.3"/>
	</g>
	<g>
		<path class="st0" d="M1595.2,149.5c1.1-14.8-12.9-14.2-13.2-14.4c4.8,2.8,2.2,6,1.3,7.7c-0.9,1.7-3.7,4.8-11,1.7
			c-8.1-3.3-16.6-6.4-36-9.7c-8.7-22.4-18.8-49.2-26.9-70.5h-11.8c-10.9,29.9-32.8,89.6-39.5,107c-3.6,9.6-9.1,16.5-16.8,16.5v5.6
			h50.6v-5.6c-10,0-11.6-5.6-8.7-13.6l7.3-20.3c8.1-8.8,10.8-12.3,21.5-12.6c8-0.2,12.5,0.9,18.9,3.6l11.2,29.7
			c2.6,7.6,0,13.2-8.3,13.2v5.6h35.4v-5.6c-5.3,0-11.8-3.1-15.8-11.1c-2.2-4.6-6.1-14.2-11-26.5c13.8,6.4,30,10.4,35.6,10.9
			C1582.8,161.6,1594.4,161.3,1595.2,149.5 M1526.4,133.4c-21.8-1.6-31.7,10.6-31.7,10.6l-2.6,4.6l19.4-54.5L1526.4,133.4z
			 M1437.2,72.1v-5.6h-45.7v5.6c14.1,0.5,18.9,3.1,19.4,9.1c0.4,3.4,1.1,7.4,1.1,12v66.5h-0.4c-23.9-29.6-52-64.3-74.3-93.2h-42.2
			v5.6c10.9,0,17.9,6.2,23,14.5v80.2c0,4.5-0.4,8.5-0.9,11.9c-0.7,6-5.6,8.5-15.4,9.1v5.6h45.9v-5.6c-14-0.5-18.9-3.1-19.8-9.1
			c-0.5-3.4-0.9-7.4-0.9-11.9V94.2h0.4c27,32.6,57.6,71.2,79.4,99.2h14.1V93.1c0-4.5,0.4-8.5,0.9-12
			C1422.7,75.2,1427.5,72.6,1437.2,72.1 M1234.2,193.4h50.6v-5.6c-7.8,0-13.2-6.9-16.9-16.5c-6.7-17.4-28.6-77-39.5-107h-11.8
			c-15.2,39.9-37.4,98.8-43.9,112.4c-4,8-10.5,11.1-15.8,11.1v5.6h35.4v-5.6c-8.3,0-10.9-5.6-8.3-13.2l7.3-21.6h44.2l7.4,21.2
			c2.9,8,1.3,13.6-8.7,13.6L1234.2,193.4L1234.2,193.4z M1232.3,144.8h-37.9l19.6-52.9h0.4L1232.3,144.8z M1083.6,89.3
			c0-13.4,9.4-18.5,17.6-18.5c14.3,0,21,12.3,24.3,23.7h4.9V69.7c0-0.9-0.5-2-1.8-2.5c-9.1-2.5-18-2.9-29.7-2.9
			c-25,0-42.2,12.7-42.2,30.6c0,16,11.2,25.9,24.8,34.6c25.4,16.5,30.6,24.7,30.6,36.6c0,13.2-10.5,22.8-22.3,22.8
			c-15.4,0-25.8-12.9-28.8-29.4h-4.9v27.7c0,1.4,0.5,2.2,1.3,2.5c9.4,3.6,19.4,5.8,34.4,5.8c25.9,0,48-12,48-34.3
			c0-13.8-5.8-23.9-24.3-37.9C1095.7,108.3,1083.6,102,1083.6,89.3 M1017.1,143c0.7-3.3,6.9-4.2,15-4.9v-5.6h-60v5.6
			c12.7,0.7,19,1.6,19.8,4.9c0.7,3.5,0.7,6.2,0.7,10.9v11.6c0,18.3-6,24.1-23.4,24.1c-25.9,0-41.3-28.6-41.3-61.8
			c0.2-31.7,13.2-57.5,44.4-57.5c24.7,0,33.9,16.7,37,30.6h4.9V77.5c0-2.9-2-5.4-7.1-7.1c-8.9-2.9-17.2-6.2-34.1-6.2
			c-52.9,0-73.3,37-73.3,64.9c0,46.2,30.6,66.3,70.7,66.3c17.8,0,35.2-4.3,45.9-8.3v-33.4C1016.4,149.1,1016.4,146.4,1017.1,143
			 M885.5,72.1v-5.6h-45.7v5.6c14.1,0.5,18.9,3.1,19.4,9.1c0.4,3.4,1.1,7.4,1.1,12v66.5h-0.4c-23.9-29.6-52-64.3-74.3-93.2h-42.2
			v5.6c10.9,0,18,6.2,23,14.5v80.2c0,4.5-0.4,8.5-0.9,11.9c-0.7,6-5.6,8.5-15.4,9.1v5.6H796v-5.6c-14-0.5-18.9-3.1-19.8-9.1
			c-0.5-3.4-0.9-7.4-0.9-11.9V94.2h0.4c27,32.6,57.7,71.2,79.4,99.2h14.2V93.1c0-4.5,0.4-8.5,0.9-12C871,75.2,875.9,72.6,885.5,72.1
			 M679.3,193.4h50.5v-5.6c-7.8,0-13.2-6.9-16.9-16.5c-6.7-17.4-28.6-77-39.5-107h-11.8c-8.2,21.3-18.3,48.2-26.9,70.5
			c-19.4,3.3-27.9,6.4-36,9.7c-7.4,3-10.1,0-11-1.7s-3.5-4.9,1.3-7.7c-0.3,0.2-14.3-0.5-13.2,14.4c0.9,11.8,12.5,12.1,17.4,11.7
			c5.6-0.5,21.8-4.5,35.6-10.9c-4.8,12.3-8.8,21.9-11,26.5c-4,8-10.5,11.1-15.8,11.1v5.6h35.4v-5.6c-8.3,0-10.9-5.6-8.3-13.2
			l11.2-29.7c6.4-2.8,11-3.8,18.9-3.6c10.7,0.3,13.5,3.8,21.5,12.6l7.3,20.3c2.9,8,1.3,13.6-8.7,13.6V193.4z M678.9,148.7l-2.6-4.6
			c0,0-9.9-12.2-31.7-10.6l14.8-39.3L678.9,148.7z"/>
		<g>
			<path class="st0" d="M682.7,378.2h-19.2c-1.1,0-2-0.2-2.7-0.5s-1.7-0.8-2.8-1.6c-1.1-0.8-2-1.8-2.7-3.1c-0.7-1.7-1.3-3-1.9-4
				l-13.6-26.1h-8v22.3c0,1.7,0.1,3.1,0.2,4c0.1,0.9,0.5,1.7,1,2.4s1.2,1.2,2.1,1.6c0.9,0.4,1.8,0.6,2.7,0.6h4v4.4h-41v-4.4l4.9-0.5
				c1-0.1,1.8-0.3,2.4-0.5c0.6-0.2,1.3-0.6,2-1.3c0.7-0.6,1.2-1.4,1.5-2.4c0.3-0.9,0.5-2.1,0.5-3.4v-55.9c0-2-0.5-3.6-1.6-5
				c-0.6-0.7-1.4-1.3-2.6-1.7c-1.2-0.4-2.7-0.8-4.6-1.1l-1.6-0.3v-4.4H644c20.8,0,31.2,7.3,31.2,21.8c0,4.3-1.2,8.2-3.5,11.7
				s-5.5,6.1-9.3,7.7l-5.5,2.4l17.4,26.7c0.7,1,1.5,2.1,2.6,3.2c0.7,0.7,1.3,1.3,2,1.9c0.6,0.6,1.2,1.1,1.8,1.6
				c0.6,0.4,1.3,0.9,2.1,1.6v2.3H682.7z M654.2,320.5c0-5.7-0.9-9.9-2.8-12.6c-2.4-3.5-6.7-5.2-12.8-5.2h-6.8v35.8h8
				c5,0,8.7-1.9,11.2-5.6C653.1,329.7,654.2,325.6,654.2,320.5z"/>
			<path class="st0" d="M782.3,357.5l-3.5,20.7h-66.9v-4.4l4.2-0.2c1.2,0,2.1-0.1,2.7-0.2c0.6-0.1,1.2-0.6,2-1.3
				c0.8-0.7,1.2-1.4,1.4-2.2c0.2-0.8,0.3-2,0.3-3.6v-56.7c0-1.5-0.1-2.5-0.2-3.1c-0.1-0.6-0.5-1.2-1-1.8c-0.6-0.6-1.1-1-1.6-1.2
				s-1.4-0.3-2.7-0.5l-5.6-1v-4.5h62.1v18.4l-3,0.6l-1.4-4.4c-0.5-1.7-1.2-3.1-1.9-4.1c-0.8-1.1-1.9-2-3.3-2.9c-2.1-1.3-4.2-2-6.5-2
				h-15.3v30.7h8.7c1.5,0,2.8-0.1,4.1-0.4s2.4-0.7,3.4-1.3c1-0.6,1.8-1.4,2.5-2.4c0.6-1,1.1-2.2,1.3-3.7l0.5-3.5h3.4v28h-3.3
				l-0.7-3.3c-0.3-1.4-0.6-2.5-0.9-3.3c-0.3-0.8-0.9-1.6-1.6-2.4c-1.1-1.1-2.2-1.8-3.5-2.1c-1.3-0.3-2.9-0.5-4.9-0.5h-8.7v23.9
				c0,3.8,0.6,6.4,1.9,7.8c1.7,2,5.2,3,10.4,3c4.8,0,8.7-0.6,11.8-1.9c3.7-1.6,6.6-4.2,8.6-7.8l3.6-6.5L782.3,357.5L782.3,357.5z"/>
			<path class="st0" d="M869.1,357c0,5.9-1.9,10.7-5.8,14.4c-3.3,3.1-7.9,5.4-13.9,6.8c-4.9,1.2-10.4,1.8-16.4,1.8
				c-3.4,0-6.7-0.3-9.9-0.8c-3.3-0.5-5.9-1.2-8-1.9l-4.2-1.3v-19.8h3.4l1.2,4.1c1.5,5.1,4.2,9,8.1,11.7c3.1,2.2,6.4,3.3,9.8,3.3
				c4.2,0,7.8-1.4,10.6-4.2c2.9-2.8,4.3-6.2,4.3-10.1c0-3.5-0.9-6.6-2.8-9.3c-1.6-2.3-4.1-4.6-7.6-7l-10.4-7
				c-5.6-3.8-9.4-6.8-11.4-9.1c-3.3-3.7-4.9-7.9-4.9-12.7c0-6.7,3.1-11.8,9.3-15.2c5.4-3,12.4-4.5,20.9-4.5h4.5
				c3.1,0,5.6,0.1,7.4,0.2c1.8,0.1,4.1,0.5,6.8,1.2l3.4,0.8v17.8h-3.7l-1.7-4c-1.5-3.3-3.3-5.9-5.6-7.9c-2.6-2.2-5.6-3.4-8.8-3.4
				s-5.9,1.1-8.2,3.4c-2.3,2.2-3.4,4.9-3.4,8.1c0,2.4,0.6,4.5,1.9,6.3c1,1.5,2.6,3.1,5,4.8l10.9,8.1c5.1,3.8,8.2,6.1,9.3,7.1
				c3.1,2.7,5.5,5.3,7,7.8C868.2,349.6,869.1,353.1,869.1,357z"/>
			<path class="st0" d="M940.6,302l-4.6,0.6c-0.7,0.1-1.3,0.1-1.9,0.2c-1.1,0.2-2,0.7-2.9,1.5c-0.6,0.5-1,1.2-1.3,2.1
				s-0.5,2.3-0.5,4.2c0,0.7,0,1.2,0,1.5v51.7c0,1.9,0.1,3.4,0.3,4.6s0.8,2.2,1.7,3.1c1.4,1.4,3,2.1,4.7,2.1l3.8,0.3v4.4h-41.8V374
				l4.9-0.3c2.1,0,3.8-0.9,5.2-2.6c0.5-0.5,0.8-1.5,1.1-2.9c0.3-1.5,0.4-2.9,0.4-4.4v-53.1c0-1.9-0.1-3.3-0.2-4.2
				c-0.1-0.9-0.5-1.7-1.3-2.4c-0.7-0.7-1.5-1.2-2.2-1.4c-0.7-0.2-2-0.4-3.7-0.5l-3.1-0.3v-4.3h41.3L940.6,302L940.6,302z"/>
			<path class="st0" d="M1057.6,335.8c0,12.6-4.6,22.8-13.7,30.7s-20.9,11.8-35.4,11.8h-40.9v-4.4h4.8c1,0,1.9-0.1,2.7-0.4
				s1.5-0.7,2.1-1.4c0.3-0.3,0.5-0.8,0.7-1.4s0.3-1.4,0.3-2.3c0-0.6,0-1.1,0-1.4v-57.2c0-0.4,0-0.7,0-0.9c0-1.6-0.1-2.8-0.4-3.5
				c-0.3-0.7-0.7-1.3-1.3-1.8c-1.2-0.9-2.7-1.3-4.5-1.3l-4.7-0.3v-4.4h44c15.8,0,27.6,3.5,35.4,10.4
				C1054,314.4,1057.6,323.6,1057.6,335.8z M1036.5,337.5c0-10.5-2.2-18.7-6.6-24.5c-5.3-7.1-13.9-10.6-25.8-10.6h-5.8v61.2
				c0,3,0.4,5.2,1.3,6.6c1.2,1.9,3.5,2.9,6.9,2.9c0.3,0,0.8,0,1.3-0.1s0.9-0.1,1.2-0.1c9.9-1.1,17.2-5.1,21.8-12
				C1034.5,355.1,1036.5,347.3,1036.5,337.5z"/>
			<path class="st0" d="M1156.3,357.5l-3.5,20.7h-66.9v-4.4l4.2-0.2c1.2,0,2.1-0.1,2.7-0.2s1.2-0.6,2-1.3c0.8-0.7,1.2-1.4,1.4-2.2
				c0.2-0.8,0.3-2,0.3-3.6v-56.7c0-1.5-0.1-2.5-0.2-3.1s-0.4-1.2-1-1.8c-0.6-0.6-1.1-1-1.6-1.2s-1.4-0.3-2.7-0.5l-5.6-1v-4.5h62.1
				v18.4l-3,0.6l-1.4-4.4c-0.5-1.7-1.2-3.1-1.9-4.1c-0.8-1.1-1.9-2-3.3-2.9c-2.1-1.3-4.2-2-6.5-2h-15.3v30.7h8.7
				c1.5,0,2.8-0.1,4.1-0.4c1.3-0.3,2.4-0.7,3.4-1.3c1-0.6,1.8-1.4,2.5-2.4c0.6-1,1.1-2.2,1.3-3.7l0.5-3.5h3.4v28h-3.3l-0.7-3.3
				c-0.3-1.4-0.6-2.5-0.9-3.3s-0.9-1.6-1.6-2.4c-1.1-1.1-2.2-1.8-3.5-2.1c-1.3-0.3-2.9-0.5-4.9-0.5h-8.7v23.9c0,3.8,0.6,6.4,1.9,7.8
				c1.7,2,5.2,3,10.3,3c4.8,0,8.7-0.6,11.8-1.9c3.7-1.6,6.6-4.2,8.6-7.8l3.6-6.5L1156.3,357.5L1156.3,357.5z"/>
			<path class="st0" d="M1278.5,301.9l-3.3,0.5c-1.5,0.2-2.5,0.4-2.9,0.5c-1.1,0.3-2,0.9-2.8,1.6c-1.5,1.5-2.2,3.2-2.2,5.2v69.2
				H1254l-49.1-63.4v48c0,2.3,0.1,4,0.3,5c0.2,1,0.8,2,1.8,3.1c0.6,0.7,1.4,1.2,2.4,1.6s1.9,0.5,2.8,0.5l6.1,0.3v4.4h-31.2V374
				l3.9-0.3c1.9,0,3.6-0.6,5-1.9c1-0.8,1.6-2,1.9-3.4s0.4-3.2,0.4-5.3v-52.9c-1.2-1.3-2.2-2.3-2.9-2.9c-2.1-2.1-3.5-3.3-4.2-3.7
				c-1.1-0.6-2.1-1.1-2.9-1.3c-0.8-0.3-1.8-0.4-2.9-0.4h-3l0.1-4.4h31.5l46.6,59.1v-46.4c0-1.1-0.1-2.1-0.4-2.9s-0.8-1.6-1.5-2.3
				c-0.7-0.7-1.7-1.2-2.9-1.6c-1.2-0.4-2.4-0.6-3.5-0.8l-5.5-0.7v-4.4h31.6L1278.5,301.9L1278.5,301.9z"/>
			<path class="st0" d="M1384.8,356.1l-3.6,16.7l-3.4,2c-2,1.2-5.3,2.3-10,3.4s-9.3,1.6-13.9,1.6c-15.4,0-27.1-3.6-35.2-10.7
				s-12.2-17.2-12.2-30.4c0-12.3,4.5-22.4,13.5-30.5c9-8,20.1-12,33.3-12c4.8,0,9.2,0.4,13.1,1.2c3.9,0.8,7.4,2,10.6,3.6l4.5,2.2
				v16.7h-4l-1.4-4.2c-1.5-4.8-4.3-8.3-8.4-10.6c-4.1-2.3-8.9-3.5-14.5-3.5c-8.3,0-14.9,4-19.7,11.9c-4.2,7-6.3,15.3-6.3,25.2
				c0,9.6,2.1,17.8,6.4,24.6c4.9,7.7,11.6,11.5,20.2,11.5c5.6,0,10.5-1.3,14.6-3.8s7.7-6.3,10.7-11.4l2.2-3.6L1384.8,356.1
				L1384.8,356.1z"/>
			<path class="st0" d="M1481.8,357.5l-3.4,20.8h-66.9v-4.4l4.2-0.2c1.2,0,2.1-0.1,2.7-0.2s1.2-0.6,2-1.3c0.8-0.7,1.2-1.4,1.4-2.2
				c0.2-0.8,0.3-2,0.3-3.6v-56.7c0-1.5-0.1-2.5-0.2-3.1s-0.4-1.2-1-1.8c-0.6-0.6-1.1-1-1.6-1.2s-1.4-0.3-2.7-0.5l-5.6-1v-4.5h62.1
				V316l-3,0.6l-1.4-4.4c-0.5-1.7-1.2-3.1-1.9-4.1c-0.8-1.1-1.9-2-3.3-2.9c-2.1-1.3-4.2-2-6.5-2h-15.3v30.7h8.7
				c1.5,0,2.8-0.1,4.1-0.4c1.3-0.3,2.4-0.7,3.4-1.3c1-0.6,1.8-1.4,2.5-2.4c0.6-1,1.1-2.2,1.3-3.7l0.5-3.5h3.4v28h-3.3l-0.7-3.3
				c-0.3-1.4-0.6-2.5-0.9-3.3s-0.9-1.6-1.6-2.4c-1.1-1.1-2.2-1.8-3.5-2.1c-1.3-0.3-2.9-0.5-4.9-0.5h-8.7v23.9c0,3.8,0.6,6.4,1.9,7.8
				c1.7,2,5.2,3,10.3,3c4.8,0,8.7-0.6,11.8-1.9c3.7-1.6,6.6-4.2,8.6-7.8l3.6-6.5H1481.8z"/>
			<path class="st0" d="M1568.7,357c0,5.9-1.9,10.7-5.8,14.4c-3.3,3.1-7.9,5.4-13.9,6.8c-4.9,1.2-10.4,1.8-16.4,1.8
				c-3.4,0-6.7-0.3-9.9-0.8c-3.3-0.5-5.9-1.2-8-1.9l-4.2-1.3v-19.8h3.4l1.2,4.1c1.5,5.1,4.2,9,8.1,11.7c3.1,2.2,6.4,3.3,9.8,3.3
				c4.2,0,7.8-1.4,10.6-4.2c2.9-2.8,4.3-6.2,4.3-10.1c0-3.5-0.9-6.6-2.8-9.3c-1.6-2.3-4.1-4.6-7.6-7l-10.4-7
				c-5.6-3.8-9.4-6.8-11.4-9.1c-3.3-3.7-4.9-7.9-4.9-12.7c0-6.7,3.1-11.8,9.3-15.2c5.4-3,12.4-4.5,20.9-4.5h4.5
				c3.1,0,5.6,0.1,7.4,0.2s4.1,0.5,6.8,1.2l3.4,0.8v17.8h-3.7l-1.7-4c-1.5-3.3-3.3-5.9-5.6-7.9c-2.6-2.2-5.6-3.4-8.8-3.4
				c-3.2,0-5.9,1.1-8.2,3.4c-2.3,2.2-3.4,4.9-3.4,8.1c0,2.4,0.6,4.5,1.9,6.3c1,1.5,2.6,3.1,5,4.8l10.9,8.1c5.1,3.8,8.2,6.1,9.3,7.1
				c3.1,2.7,5.5,5.3,7,7.8C1567.7,349.6,1568.7,353.1,1568.7,357z"/>
		</g>
		<polyline class="st0" points="599.1,249.2 1566,249.2 1566,240.7 599.1,240.7 		"/>
	</g>
</g>
</svg>
