<svg id="Layer_1" data-name="Layer 1" xmlns="http://www.w3.org/2000/svg" viewBox="0 0 65.81 54.7"><defs><style>.cls-1,.cls-2{fill:none;}.cls-2{stroke:#082b26;stroke-linecap:round;stroke-linejoin:round;stroke-width:2.75px;}</style></defs><path class="cls-1" d="M10.91,5.35h44v44h-44Z"/><circle class="cls-2" cx="40.24" cy="21.85" r="1.83"/><path class="cls-2" d="M21.91,25.52l7.33-3.67,6.42,5.5L32.91,31"/><path class="cls-2" d="M16.41,36.06a4.46,4.46,0,0,0,1.83.46,4.41,4.41,0,0,0,3.67-1.84,4.59,4.59,0,0,1,7.33,0,4.57,4.57,0,0,0,7.33,0,4.6,4.6,0,0,1,7.34,0,4.38,4.38,0,0,0,3.66,1.84,4.5,4.5,0,0,0,1.84-.46"/></svg>